# Blender v2.90.0 OBJ File: ''
# www.blender.org
mtllib RuaText1.mtl
o Cube_Cube.001
v -7.062716 -0.097178 7.062716
v -7.062716 0.097178 7.062716
v -7.062716 -0.097178 -7.062716
v -7.062716 0.097178 -7.062716
v 7.062716 -0.097178 7.062716
v 7.062716 0.097178 7.062716
v 7.062716 -0.097178 -7.062716
v 7.062716 0.097178 -7.062716
v -7.062716 -0.097178 -5.313782
v -7.062716 0.097178 -5.313782
v 7.062716 -0.097178 -5.313782
v 7.062716 0.097178 -5.313782
v -7.062716 -0.097178 5.312611
v 7.062716 0.097178 5.312611
v -7.062716 0.097178 5.312611
v 7.062716 -0.097178 5.312611
v -7.062716 0.451971 7.062716
v 7.062716 0.451971 7.062716
v 7.062716 0.451971 5.312611
v -7.062716 0.451971 5.312611
v -7.062716 0.386565 -7.062716
v 7.062716 0.386565 -7.062716
v -7.062716 0.386565 -5.313782
v 7.062716 0.386565 -5.313782
vt 0.375000 0.219046
vt 0.625000 0.219046
vt 0.625000 0.250000
vt 0.375000 0.250000
vt 0.625000 0.500000
vt 0.375000 0.500000
vt 0.375000 0.719026
vt 0.625000 0.719026
vt 0.625000 0.750000
vt 0.375000 0.750000
vt 0.625000 1.000000
vt 0.375000 1.000000
vt 0.125000 0.719026
vt 0.125000 0.750000
vt -0.003906 0.875861
vt 0.998047 0.875861
vt 0.998047 0.875861
vt -0.003906 0.875861
vt 0.625000 0.250000
vt 0.625000 0.500000
vt 0.125000 0.500000
vt 0.375000 0.530954
vt 0.125000 0.530954
vt 0.625000 0.530954
vt 0.375000 0.030974
vt 0.625000 0.030974
vt 0.375000 0.000000
vt 0.625000 0.000000
vt -0.003906 0.122103
vt 0.998047 0.122103
vt 0.998047 1.000000
vt -0.003906 1.000000
vt 0.625000 0.719026
vt 0.625000 0.750000
vt 0.625000 1.000000
vt 0.625000 0.000000
vt 0.625000 0.030974
vt -0.003906 -0.001953
vt 0.998047 -0.001953
vt 0.998047 0.122103
vt -0.003906 0.122103
vt 0.625000 0.530954
vt 0.625000 0.219046
vn -1.0000 0.0000 0.0000
vn 0.0000 0.0000 -1.0000
vn 1.0000 0.0000 0.0000
vn 0.0000 0.0000 1.0000
vn 0.0000 -1.0000 0.0000
vn 0.0000 1.0000 0.0000
usemtl Road_Text1
s off
f 9/1/1 10/2/1 4/3/1 3/4/1
f 3/4/2 4/3/2 8/5/2 7/6/2
f 16/7/3 14/8/3 6/9/3 5/10/3
f 5/10/4 6/9/4 2/11/4 1/12/4
f 13/13/5 16/7/5 5/10/5 1/14/5
f 14/15/2 15/16/2 20/17/2 19/18/2
f 8/5/2 4/3/2 21/19/2 22/20/2
f 3/21/5 7/6/5 11/22/5 9/23/5
f 7/6/3 8/5/3 12/24/3 11/22/3
f 13/25/1 15/26/1 10/2/1 9/1/1
f 1/27/1 2/28/1 15/26/1 13/25/1
f 12/29/6 10/30/6 15/16/6 14/15/6
f 9/23/5 11/22/5 16/7/5 13/13/5
f 11/22/3 12/24/3 14/8/3 16/7/3
f 19/18/6 20/17/6 17/31/6 18/32/6
f 6/9/3 14/8/3 19/33/3 18/34/3
f 2/11/4 6/9/4 18/34/4 17/35/4
f 15/26/1 2/28/1 17/36/1 20/37/1
f 22/38/6 21/39/6 23/40/6 24/41/6
f 10/30/4 12/29/4 24/41/4 23/40/4
f 12/24/3 8/5/3 22/20/3 24/42/3
f 4/3/1 10/2/1 23/43/1 21/19/1
